<svg id="Layer_1" data-name="Layer 1" xmlns="http://www.w3.org/2000/svg" viewBox="0 0 520.93 293.47"><defs><style>.cls-1{fill:#fff;}.cls-2{fill:#ec008c;}</style></defs><path d="M560.73,323.88h0V270.49c0-1.85,0-3.71,0-5.56a13.71,13.71,0,0,0-.84-4.44,8.11,8.11,0,0,0-2.94-3.8,7.72,7.72,0,0,0-4.62-1.8c-1.85,0-3.71,0-5.56,0H68.15c-2.36,0-4.73,0-7.09,0A7.76,7.76,0,0,0,56.57,256,8.68,8.68,0,0,0,53,259.9a16.21,16.21,0,0,0-1.15,5.4c0,.73,0,1.46,0,2.19v93.17h0V524.55a19,19,0,0,0,.41,4.68A9.29,9.29,0,0,0,54.92,534a7.75,7.75,0,0,0,5.73,2.36c.68,0,1.35,0,2,0H526.43q12.57,0,25.14,0a8,8,0,0,0,4.34-1,9,9,0,0,0,4.2-5.26,18.65,18.65,0,0,0,.64-5.17Q560.72,424.38,560.73,323.88ZM540.09,394.2a13.25,13.25,0,0,1,.15,2.36A13.25,13.25,0,0,0,540.09,394.2Z" transform="translate(-45.82 -248.86)"/><path d="M551.62,542.33h-.07c-5.95,0-11.91,0-17.87,0H61.83c-.33,0-.66,0-1,0a13.62,13.62,0,0,1-10-4,15.21,15.21,0,0,1-4.41-7.65,24.35,24.35,0,0,1-.58-6.13V266.88c0-.62,0-1.24,0-1.86a22.16,22.16,0,0,1,1.59-7.39A14.56,14.56,0,0,1,53.29,251a13.6,13.6,0,0,1,7.88-2.15c1.57,0,3.14,0,4.71,0H549.33c1,0,2,0,3,0h0a13.62,13.62,0,0,1,8.16,3,14,14,0,0,1,5,6.62,19.93,19.93,0,0,1,1.19,6.37c0,1.46,0,2.92,0,4.38v54.65h0q0,100.49,0,201a24.51,24.51,0,0,1-.87,6.81,15.05,15.05,0,0,1-6.84,8.74A13.85,13.85,0,0,1,551.62,542.33Zm-10.69-12h10.65a3.08,3.08,0,0,0,1.2-.16,3,3,0,0,0,1.56-1.79,12.45,12.45,0,0,0,.41-3.52q0-100.49,0-201h0V269.21c0-1.4,0-2.8,0-4.2a7.6,7.6,0,0,0-.5-2.51,2,2,0,0,0-.84-1,3.56,3.56,0,0,0-1.06-.63c-1,0-2,0-3.07,0H65.94c-1.66,0-3.32,0-5,0a1.92,1.92,0,0,0-1.11.19c-1,.67-1.26,1-1.31,1.13a10,10,0,0,0-.71,3.4c0,.39,0,.77,0,1.16V524.55a14.23,14.23,0,0,0,.23,3.22,3.24,3.24,0,0,0,1,1.81c.81.76,1.17.76,1.43.74.53,0,1,0,1.57,0h478.9Zm-6.69-133.76a9.72,9.72,0,0,0-.06-1.34l11.83-2a19.62,19.62,0,0,1,.23,3.36Z" transform="translate(-45.82 -248.86)"/><path class="cls-1" d="M306.28,474.8H205.39c-1.07,0-2.14,0-3.21,0a5.76,5.76,0,0,1-4.56-3.52,4.51,4.51,0,0,1-.16-1.16c0-.79,0-1.58,0-2.36V349.54c0-.73.05-1.46,0-2.19a4.94,4.94,0,0,1,1.56-3.77,3.77,3.77,0,0,1,2.77-1.36,19.17,19.17,0,0,0,2-.32,11,11,0,0,1,1.51-.13h17.21a3.79,3.79,0,0,1,1.17.07,10.39,10.39,0,0,0,3.51.31q89.25,0,178.49,0c.9,0,1.8-.18,2.69-.13,1.28.07,2.55.27,3.83.44a1,1,0,0,1,.44.22,5.4,5.4,0,0,1,2.52,4.34c0,.84,0,1.68,0,2.52V467.89a16.32,16.32,0,0,0,0,1.85c.28,2.36-2.74,5.23-5.09,5.05-.95-.07-1.91,0-2.87,0Z" transform="translate(-45.82 -248.86)"/><path d="M460.83,474.8h-26c-.67,0-1.35,0-2,0a3.27,3.27,0,0,1-3-2.67c0-.67-.17-1.34-.17-2,0-6,0-11.91,0-17.86,0-2.05.28-2.69,2.64-2.69a7.41,7.41,0,0,0,3-.45,2.78,2.78,0,0,1,1.15-.18,14.42,14.42,0,0,0,4.11-.76c1.76-.55,3.52-1.1,5.24-1.78a31.84,31.84,0,0,0,3.18-1.51,42.29,42.29,0,0,0,12.42-10.1,37.08,37.08,0,0,0,5.12-7.87,43.14,43.14,0,0,0,2.38-5.72,36.57,36.57,0,0,0,1.78-8.21,50.59,50.59,0,0,0-.33-11.6c-.19-1.21-.54-2.4-.84-3.6a39.33,39.33,0,0,0-3.47-8.9,40.74,40.74,0,0,0-2.87-4.54,41.49,41.49,0,0,0-10.42-10.14,33.52,33.52,0,0,0-6.35-3.42c-1.19-.49-2.4-1-3.6-1.44a7.35,7.35,0,0,0-.79-.27c-1.42-.31-2.87-.52-4.25-.95a21,21,0,0,0-4.84-.59,10.85,10.85,0,0,1-1.51-.12,1.76,1.76,0,0,1-1.49-1.76c0-.34,0-.68,0-1q0-9.18,0-18.37a4.5,4.5,0,0,1,.72-2.87,2.33,2.33,0,0,1,1.77-1.13c2.18-.14,4.32-.53,6.53-.52,14.45.06,28.9,0,43.35,0a7.13,7.13,0,0,1,2.67.29,3.69,3.69,0,0,0,1.16.13c.73,0,1.46.08,2.19.07a31.61,31.61,0,0,1,9.94,1.58,69.65,69.65,0,0,1,7.75,2.69,56.57,56.57,0,0,1,12.22,7.24,57.54,57.54,0,0,1,11.11,11.37,45.67,45.67,0,0,1,4.93,8.19c.95,2.08,2,4.14,2.81,6.27.63,1.61,1,3.32,1.49,5,.92,3.14,1,6.42,1.57,9.62a13.25,13.25,0,0,1,.15,2.36q0,11.79,0,23.59a20.32,20.32,0,0,1-.41,4.19,17.4,17.4,0,0,0-.28,2.17,37.14,37.14,0,0,1-2,8.83c0,.05,0,.1-.06.15-.32,2.09-1.46,3.86-2.19,5.8a39.16,39.16,0,0,1-3.33,6.39,55.17,55.17,0,0,1-14.47,15.95,52.14,52.14,0,0,1-13,7.27,60.8,60.8,0,0,1-12.81,3.39,44.92,44.92,0,0,1-6.55.49H460.83Z" transform="translate(-45.82 -248.86)"/><path d="M149.94,474.78c-8.66,0-17.32,0-26,0a39.94,39.94,0,0,1-9.68-1.16c-1.58-.39-3.18-.7-4.74-1.15-1.4-.4-2.76-.91-4.11-1.43a54.18,54.18,0,0,1-9.89-5,58.51,58.51,0,0,1-8.85-6.89,52.76,52.76,0,0,1-5-5.62,64,64,0,0,1-4.51-6.47,51.91,51.91,0,0,1-3.33-6.57c-.86-2.08-1.58-4.18-2.3-6.3a30.07,30.07,0,0,1-.78-3.42c-.24-1.09-.55-2.16-.74-3.27a47.33,47.33,0,0,1-.73-7.88c0-7.86,0-15.73,0-23.6a40.11,40.11,0,0,1,1-8.52c.27-1.2.47-2.42.76-3.61.36-1.57,1-3.07,1.55-4.61a50,50,0,0,1,2.8-6.46,51,51,0,0,1,3.42-5.78,54.51,54.51,0,0,1,8.37-9.82,60.21,60.21,0,0,1,10.59-7.93,46.84,46.84,0,0,1,4.62-2.38,51,51,0,0,1,5.29-2.1c2.13-.68,4.34-1.13,6.49-1.77,3-.9,6.11-.76,9.19-.88a9.35,9.35,0,0,0,3.33-.36H135a8.29,8.29,0,0,0,3.17.31h27.15a7.37,7.37,0,0,0,2.84-.3c2.58,0,5.16-.08,7.74,0a5.7,5.7,0,0,0,2.29,0,2.64,2.64,0,0,1,1.3.08,3,3,0,0,1,1.1.4,3.32,3.32,0,0,1,1.23,1.07,6.2,6.2,0,0,1,.77,2.73c0,4,0,8,0,12,0,1.78-.76,2.51-2.57,2.61-.73,0-1.46.07-2.19.08a32.06,32.06,0,0,0-7.95,1.24c-1.91.5-3.76,1.11-5.62,1.74a41.22,41.22,0,0,0-10.88,5.89,44.8,44.8,0,0,0-10.52,10.54,56.31,56.31,0,0,0-4.83,8.25,40.65,40.65,0,0,0-2,5.15c-.58,1.83-1,3.68-1.4,5.53a48.05,48.05,0,0,0-.71,13.75,46,46,0,0,0,1.21,7,42.59,42.59,0,0,0,1.55,5.12A48.27,48.27,0,0,0,146.41,441a41,41,0,0,0,6.86,6.17,57,57,0,0,0,8.39,4.9,81.82,81.82,0,0,0,9.84,3.31,12.32,12.32,0,0,0,1.5.22c.94.15,1.88.33,2.82.47a15.48,15.48,0,0,0,1.67.17c1,0,2,.08,3,0a1.88,1.88,0,0,1,2.17,2.14c-.06.78,0,1.57,0,2.36,0,3.37,0,6.74,0,10.11a3.7,3.7,0,0,1-.67,2.54,3.33,3.33,0,0,1-2.56,1.4q-1.35,0-2.7,0H149.94Z" transform="translate(-45.82 -248.86)"/><path d="M182.64,408.57v20.56a10.9,10.9,0,0,1-.06,1.51,1.4,1.4,0,0,1-1.35,1.28,15,15,0,0,1-2.51-.15c-1-.13-2-.35-3-.52a17.61,17.61,0,0,1-4.7-1.75,23.47,23.47,0,0,1-8.76-7.39,16.38,16.38,0,0,1-2.38-4,21.49,21.49,0,0,1-1.67-5.79c-.1-1.29-.48-2.56-.45-3.84a23.66,23.66,0,0,1,1.58-8c.28-.73.54-1.46.87-2.17a23.4,23.4,0,0,1,10.12-10.65,20.58,20.58,0,0,1,5-2c1.3-.33,2.63-.6,3.95-.87a5.74,5.74,0,0,1,1.17-.12,1.91,1.91,0,0,1,2.12,1.9,12.69,12.69,0,0,1,0,1.51v20.56Z" transform="translate(-45.82 -248.86)"/><path d="M429.83,408.5q0-10.37,0-20.72a13.41,13.41,0,0,1,.05-1.68,1.52,1.52,0,0,1,1.89-1.44,37.81,37.81,0,0,1,6.65,1.8,32.86,32.86,0,0,1,4.28,2.24,23.53,23.53,0,0,1,5.77,5.31,26.87,26.87,0,0,1,4.23,8.33,1.24,1.24,0,0,1,0,.16c0,2.19.84,4.31.71,6.51-.08,1.11-.37,2.2-.51,3.31a15,15,0,0,1-.64,3.28,28.57,28.57,0,0,1-2.27,4.85,24.12,24.12,0,0,1-4.68,5.64,26.06,26.06,0,0,1-6,3.89,15,15,0,0,1-3,1.07c-1.19.32-2.42.49-3.63.72a8.59,8.59,0,0,1-1,.14c-1.42.08-2-.44-1.95-1.86q0-6.57.05-13.13c0-2.81,0-5.62,0-8.42Z" transform="translate(-45.82 -248.86)"/><path class="cls-2" d="M51.83,317.46c7.9-1.5,17.64-5,17.64-13.46V287.24a3.17,3.17,0,0,1,3.16-3.17h467.3a3.17,3.17,0,0,1,3.16,3.17V304c0,8.4,9.73,12,17.64,13.46v-47c0-1.85,0-3.71,0-5.56a13.71,13.71,0,0,0-.84-4.44,8.11,8.11,0,0,0-2.94-3.8,7.72,7.72,0,0,0-4.62-1.8c-1.85,0-3.71,0-5.56,0H68.15c-2.36,0-4.73,0-7.09,0A7.76,7.76,0,0,0,56.57,256,8.68,8.68,0,0,0,53,259.9a16.21,16.21,0,0,0-1.15,5.4c0,.73,0,1.46,0,2.19Z" transform="translate(-45.82 -248.86)"/><path class="cls-2" d="M554.4,322.42c-14.58-4.27-17.64-12.37-17.64-18.42V290.4H75.8V304c0,6.05-3.06,14.15-17.64,18.42a57.57,57.57,0,0,1-6.33,1.46V524.55a19,19,0,0,0,.41,4.68A9.29,9.29,0,0,0,54.92,534a7.75,7.75,0,0,0,5.73,2.36c.68,0,1.35,0,2,0H526.43q12.57,0,25.14,0a8,8,0,0,0,4.34-1,9,9,0,0,0,4.2-5.26,18.65,18.65,0,0,0,.64-5.17q0-100.49,0-201A57.57,57.57,0,0,1,554.4,322.42Zm-124.6,94.5c0-2.81,0-5.62,0-8.42h0q0-10.37,0-20.72a13.41,13.41,0,0,1,.05-1.68,1.52,1.52,0,0,1,1.89-1.44,37.81,37.81,0,0,1,6.65,1.8,32.86,32.86,0,0,1,4.28,2.24,23.53,23.53,0,0,1,5.77,5.31,26.87,26.87,0,0,1,4.23,8.33,1.24,1.24,0,0,1,0,.16c0,2.19.84,4.31.71,6.51-.08,1.11-.37,2.2-.51,3.31a15,15,0,0,1-.64,3.28,28.57,28.57,0,0,1-2.27,4.85,24.12,24.12,0,0,1-4.68,5.64,26.06,26.06,0,0,1-6,3.89,15,15,0,0,1-3,1.07c-1.19.32-2.42.49-3.63.72a8.59,8.59,0,0,1-1,.14c-1.42.08-2-.44-1.95-1.86Q429.78,423.48,429.8,416.92Zm-247.21-8.35h0v20.56a10.9,10.9,0,0,1-.06,1.51,1.4,1.4,0,0,1-1.35,1.28,15,15,0,0,1-2.51-.15c-1-.13-2-.35-3-.52a17.61,17.61,0,0,1-4.7-1.75,23.47,23.47,0,0,1-8.76-7.39,16.38,16.38,0,0,1-2.38-4,21.49,21.49,0,0,1-1.67-5.79c-.1-1.29-.48-2.56-.45-3.84a23.66,23.66,0,0,1,1.58-8c.28-.73.54-1.46.87-2.17a23.4,23.4,0,0,1,10.12-10.65,20.58,20.58,0,0,1,5-2c1.3-.33,2.63-.6,3.95-.87a5.74,5.74,0,0,1,1.17-.12,1.91,1.91,0,0,1,2.12,1.9,12.69,12.69,0,0,1,0,1.51Zm.09,52.16c0,3.37,0,6.74,0,10.11a3.7,3.7,0,0,1-.67,2.54,3.33,3.33,0,0,1-2.56,1.4q-1.35,0-2.7,0H149.94v0c-8.66,0-17.32,0-26,0a39.94,39.94,0,0,1-9.68-1.16c-1.58-.39-3.18-.7-4.74-1.15-1.4-.4-2.76-.91-4.11-1.43a54.18,54.18,0,0,1-9.89-5,58.51,58.51,0,0,1-8.85-6.89,52.76,52.76,0,0,1-5-5.62,64,64,0,0,1-4.51-6.47,51.91,51.91,0,0,1-3.33-6.57c-.86-2.08-1.58-4.18-2.3-6.3a30.07,30.07,0,0,1-.78-3.42c-.24-1.09-.55-2.16-.74-3.27a47.33,47.33,0,0,1-.73-7.88c0-7.86,0-15.73,0-23.6a40.11,40.11,0,0,1,1-8.52c.27-1.2.47-2.42.76-3.61.36-1.57,1-3.07,1.55-4.61a50,50,0,0,1,2.8-6.46,51,51,0,0,1,3.42-5.78,54.51,54.51,0,0,1,8.37-9.82,60.21,60.21,0,0,1,10.59-7.93,46.84,46.84,0,0,1,4.62-2.38,51,51,0,0,1,5.29-2.1c2.13-.68,4.34-1.13,6.49-1.77,3-.9,6.11-.76,9.19-.88a9.35,9.35,0,0,0,3.33-.36H135a8.29,8.29,0,0,0,3.17.31h27.15a7.37,7.37,0,0,0,2.84-.3c2.58,0,5.16-.08,7.74,0a5.7,5.7,0,0,0,2.29,0,2.64,2.64,0,0,1,1.3.08,3,3,0,0,1,1.1.4,3.32,3.32,0,0,1,1.23,1.07,6.2,6.2,0,0,1,.77,2.73c0,4,0,8,0,12,0,1.78-.76,2.51-2.57,2.61-.73,0-1.46.07-2.19.08a32.06,32.06,0,0,0-7.95,1.24c-1.91.5-3.76,1.11-5.62,1.74a41.22,41.22,0,0,0-10.88,5.89,44.8,44.8,0,0,0-10.52,10.54,56.31,56.31,0,0,0-4.83,8.25,40.65,40.65,0,0,0-2,5.15c-.58,1.83-1,3.68-1.4,5.53a48.05,48.05,0,0,0-.71,13.75,46,46,0,0,0,1.21,7,42.59,42.59,0,0,0,1.55,5.12A48.27,48.27,0,0,0,146.41,441a41,41,0,0,0,6.86,6.17,57,57,0,0,0,8.39,4.9,81.82,81.82,0,0,0,9.84,3.31,12.32,12.32,0,0,0,1.5.22c.94.15,1.88.33,2.82.47a15.48,15.48,0,0,0,1.67.17c1,0,2,.08,3,0a1.88,1.88,0,0,1,2.17,2.14C182.63,459.15,182.68,459.94,182.68,460.73ZM410,474.79c-.95-.07-1.91,0-2.87,0H205.39c-1.07,0-2.14,0-3.21,0a5.76,5.76,0,0,1-4.56-3.52,4.51,4.51,0,0,1-.16-1.16c0-.79,0-1.58,0-2.36V349.54c0-.73.05-1.46,0-2.19a4.94,4.94,0,0,1,1.56-3.77,3.77,3.77,0,0,1,2.77-1.36,19.17,19.17,0,0,0,2-.32,11,11,0,0,1,1.51-.13h17.21a3.79,3.79,0,0,1,1.17.07,10.39,10.39,0,0,0,3.51.31q89.25,0,178.49,0c.9,0,1.8-.18,2.69-.13,1.28.07,2.55.27,3.83.44a1,1,0,0,1,.44.22,5.4,5.4,0,0,1,2.52,4.34c0,.84,0,1.68,0,2.52V467.89a16.32,16.32,0,0,0,0,1.85C415.4,472.1,412.38,475,410,474.79Zm129.81-50.45a17.4,17.4,0,0,0-.28,2.17,37.14,37.14,0,0,1-2,8.83c0,.05,0,.1-.06.15-.32,2.09-1.46,3.86-2.19,5.8a39.16,39.16,0,0,1-3.33,6.39,55.17,55.17,0,0,1-14.47,15.95,52.14,52.14,0,0,1-13,7.27,60.8,60.8,0,0,1-12.81,3.39,44.92,44.92,0,0,1-6.55.49H460.83v0h-26c-.67,0-1.35,0-2,0a3.27,3.27,0,0,1-3-2.67c0-.67-.17-1.34-.17-2,0-6,0-11.91,0-17.86,0-2.05.28-2.69,2.64-2.69a7.41,7.41,0,0,0,3-.45,2.78,2.78,0,0,1,1.15-.18,14.42,14.42,0,0,0,4.11-.76c1.76-.55,3.52-1.1,5.24-1.78a31.84,31.84,0,0,0,3.18-1.51,42.29,42.29,0,0,0,12.42-10.1,37.08,37.08,0,0,0,5.12-7.87,43.14,43.14,0,0,0,2.38-5.72,36.57,36.57,0,0,0,1.78-8.21,50.59,50.59,0,0,0-.33-11.6c-.19-1.21-.54-2.4-.84-3.6a39.33,39.33,0,0,0-3.47-8.9,40.74,40.74,0,0,0-2.87-4.54,41.49,41.49,0,0,0-10.42-10.14,33.52,33.52,0,0,0-6.35-3.42c-1.19-.49-2.4-1-3.6-1.44a7.35,7.35,0,0,0-.79-.27c-1.42-.31-2.87-.52-4.25-.95a21,21,0,0,0-4.84-.59,10.85,10.85,0,0,1-1.51-.12,1.76,1.76,0,0,1-1.49-1.76c0-.34,0-.68,0-1q0-9.18,0-18.37a4.5,4.5,0,0,1,.72-2.87,2.33,2.33,0,0,1,1.77-1.13c2.18-.14,4.32-.53,6.53-.52,14.45.06,28.9,0,43.35,0a7.13,7.13,0,0,1,2.67.29,3.69,3.69,0,0,0,1.16.13c.73,0,1.46.08,2.19.07a31.61,31.61,0,0,1,9.94,1.58,69.65,69.65,0,0,1,7.75,2.69,56.57,56.57,0,0,1,12.22,7.24,57.54,57.54,0,0,1,11.11,11.37,45.67,45.67,0,0,1,4.93,8.19c.95,2.08,2,4.14,2.81,6.27.63,1.61,1,3.32,1.49,5,.92,3.14,1,6.42,1.57,9.62a13.25,13.25,0,0,1,.15,2.36q0,11.79,0,23.59A20.32,20.32,0,0,1,539.84,424.34Z" transform="translate(-45.82 -248.86)"/></svg>